<svg xmlns="http://www.w3.org/2000/svg" xml:space="preserve" width="2048" height="2048" style="shape-rendering:geometricPrecision;text-rendering:geometricPrecision;image-rendering:optimizeQuality;fill-rule:evenodd;clip-rule:evenodd"><defs><style>.fil0{fill:#424242}</style></defs><g id="Layer_x0020_1"><g id="_276520384"><path id="_276520840" class="fil0" d="m1382.94 857.473-188.034 108.561-36.383-36.387-61.862-61.862c-42.991 51.228-96.945 88.206-167.386 92.58-76.637 4.757-153.542-30.462-221.982-61.015-39.162-17.483-85.597-36.403-128.264-42.693-24.281-3.58-47.208-2.964-69.993 6.842-26.857 11.56-52.396 35.289-73.957 54.689-37.503 33.74-73.423 64.974-115.318 93.505l-63.765 43.425 17.446-75.148c22.271-95.928 65.22-200.7 161.14-243.487 103.047-45.969 230.848-2.899 327.453 40.228 115.122 51.392 192.595 82.501 267.181-46.821l43.826-75.99 144.233 144.232 188.03-108.559 36.385 36.382 116.382 116.38 138.791-138.79 95.133 95.134L1558.07 1032.6l-175.13-175.128z"/><path id="_276520240" class="fil0" d="m1382.94 1196.46-188.034 108.561-36.383-36.387-61.862-61.862c-42.991 51.228-96.945 88.206-167.386 92.58-76.637 4.757-153.542-30.462-221.982-61.015-39.162-17.483-85.597-36.403-128.264-42.693-24.281-3.58-47.208-2.964-69.993 6.843-26.857 11.56-52.396 35.29-73.957 54.688-37.503 33.74-73.423 64.976-115.318 93.505l-63.765 43.425 17.446-75.148c22.271-95.928 65.22-200.7 161.14-243.487 103.047-45.969 230.848-2.899 327.453 40.228 115.122 51.392 192.595 82.501 267.181-46.821l43.826-75.989 144.233 144.23 188.03-108.558 36.385 36.38 116.382 116.382 138.791-138.79 95.133 95.133-233.926 233.922-175.13-175.128z"/></g></g><path style="fill:none" d="M0 0h2048v2048H0z"/></svg>
