<svg xmlns="http://www.w3.org/2000/svg" xml:space="preserve" width="2048" height="2048" style="shape-rendering:geometricPrecision;text-rendering:geometricPrecision;image-rendering:optimizeQuality;fill-rule:evenodd;clip-rule:evenodd"><defs><style>.fil0{fill:#424242}</style></defs><g id="Layer_x0020_1"><g id="_276513808"><path id="_274743952" class="fil0" d="M1097.34 1119.99H989.48V809.759c0-132.594 26.24-275.894 113.063-380.694 65.746-79.358 157.179-124.44 259.713-130.983 33.488-2.138 67.215-.07 100.244 5.8 117.078 20.808 229.917 90.647 288.712 195.814 47.733 85.38 52.346 180.304 20.256 272.055l-7.198 20.579h-203.338l6.9-36.436c11.127-58.766 15.694-128.08-3.465-185.75-11.608-34.938-32.828-67.138-67.7-82.064-32.073-13.73-67.845-9.438-99.61 2.888-47.462 18.416-89.174 55.18-121.556 93.69-112.818 134.167-160.455 337.017-175.663 507.342l-2.5 27.99z"/><path id="_276514024" class="fil0" d="M948.164 1092c-15.208-170.325-62.845-373.173-175.663-507.342-32.381-38.511-74.094-75.274-121.554-93.69-31.766-12.326-67.538-16.618-99.61-2.889-34.873 14.927-56.093 47.126-67.7 82.066-19.159 57.67-14.593 126.983-3.466 185.749l6.9 36.436H283.733l-7.197-20.579c-32.09-91.751-27.477-186.676 20.256-272.055 58.796-105.169 171.636-175.008 288.715-195.814 33.026-5.87 66.752-7.938 100.238-5.801 102.534 6.544 193.968 51.624 259.715 130.983 86.824 104.8 113.063 248.1 113.063 380.696v310.23h-107.86l-2.5-27.99z"/><path id="_276513760" class="fil0" d="M1060.33 1025.72c3.77 3.754 8.86 8.027 11.608 10.611 15.796 14.85 30.175 32.888 27.866 55.99-3.933 39.348-3.283 80.433-1.418 119.897 2.254 47.692 6.734 95.42 12.244 142.84 9.597 82.607 22.463 165.087 37.093 246.951 6.655 37.237 13.578 74.66 21.367 111.684l7.79 37.042H871.11l7.798-37.047c7.806-37.093 14.748-74.584 21.42-111.889 14.619-81.77 27.475-164.152 37.066-246.665 5.514-47.436 9.997-95.18 12.247-142.89 1.861-39.465 2.506-80.563-1.445-119.907-.476-4.724-.442-3.505-.13-8.095 1.357-19.996 14.113-34.842 28.002-47.903 2.742-2.578 7.822-6.85 11.584-10.599l-5.975-27.742h84.627l-5.974 27.722z"/></g></g><path style="fill:none" d="M0 0h2048v2048H0z"/></svg>
