<svg xmlns="http://www.w3.org/2000/svg" xml:space="preserve" width="2048" height="2048" style="shape-rendering:geometricPrecision;text-rendering:geometricPrecision;image-rendering:optimizeQuality;fill-rule:evenodd;clip-rule:evenodd"><defs><style>.fil0{fill:#424242}</style></defs><g id="Layer_x0020_1"><g id="_274746904"><path id="_274747024" class="fil0" d="M1370.76 255.999c109.075 0 205.941 53.254 274.471 136.599 71.334 86.758 106.866 199.125 106.866 310.785 0 111.662-35.532 224.027-106.866 310.785-68.53 83.347-165.395 136.6-274.471 136.6-109.074 0-205.941-53.255-274.468-136.6-71.335-86.76-106.866-199.123-106.866-310.785 0-111.66 35.531-224.027 106.866-310.785 68.528-83.346 165.395-136.599 274.468-136.599zm157.54 232.752c-39.31-47.807-94.387-81.033-157.54-81.033-63.152 0-118.23 33.225-157.539 81.033-49.028 59.63-72.077 138.139-72.077 214.632 0 76.496 23.05 155.002 72.078 214.634 39.307 47.809 94.386 81.033 157.538 81.033 63.154 0 118.231-33.224 157.54-81.033 49.029-59.632 72.078-138.137 72.078-214.634 0-76.494-23.049-155.002-72.078-214.632z"/><path id="_274746376" class="fil0" d="M975.048 1658.32c57.865-49.026 114.232-103.999 166.949-158.349 112.752-116.243 220.266-245.225 305.446-383.118 76.394-123.669 144.3-270.976 153.163-417.961 2.506-41.544 38.51-73.577 80.074-71.135 41.587 2.443 73.688 38.524 71.18 80.122-9.737 161.535-77.026 320.268-158.427 458.187-91.714 155.392-209.978 300.531-334.733 430.641-58.423 60.927-121.231 122.59-185.746 177.255-31.784 26.932-79.883 22.912-106.787-8.882-26.9-31.79-22.884-79.845 8.881-106.76z"/><path id="_274746592" class="fil0" d="M677.243 1792c-109.075 0-205.941-53.254-274.471-136.599-71.334-86.758-106.866-199.125-106.866-310.785 0-111.662 35.532-224.027 106.866-310.785 68.53-83.347 165.395-136.6 274.471-136.6 109.074 0 205.941 53.255 274.468 136.6 71.335 86.76 106.866 199.123 106.866 310.785 0 111.66-35.531 224.027-106.866 310.785C883.183 1738.747 786.316 1792 677.243 1792zm-157.54-232.752c39.31 47.807 94.387 81.033 157.54 81.033 63.152 0 118.23-33.225 157.539-81.033 49.028-59.63 72.077-138.139 72.077-214.632 0-76.496-23.05-155.002-72.078-214.634-39.307-47.809-94.386-81.033-157.538-81.033-63.154 0-118.231 33.224-157.54 81.033-49.029 59.632-72.078 138.137-72.078 214.634 0 76.494 23.049 155.002 72.078 214.632z"/><path id="_274746688" class="fil0" d="M1072.95 389.683c-57.865 49.026-114.232 103.999-166.949 158.349C793.249 664.275 685.735 793.257 600.555 931.15c-76.394 123.669-144.3 270.976-153.163 417.961-2.506 41.544-38.51 73.577-80.074 71.135-41.587-2.443-73.688-38.524-71.18-80.122 9.737-161.535 77.026-320.268 158.427-458.187 91.714-155.392 209.978-300.531 334.733-430.641 58.423-60.927 121.231-122.59 185.746-177.255 31.784-26.931 79.883-22.912 106.787 8.882 26.9 31.79 22.884 79.845-8.881 106.76z"/></g></g><path style="fill:none" d="M0 0h2048v2048H0z"/></svg>
