<svg xmlns="http://www.w3.org/2000/svg" xml:space="preserve" width="2048" height="2048" style="shape-rendering:geometricPrecision;text-rendering:geometricPrecision;image-rendering:optimizeQuality;fill-rule:evenodd;clip-rule:evenodd"><defs><style>.fil0{fill:#424242}</style></defs><g id="Layer_x0020_1"><g id="_276519688"><path id="_276519520" class="fil0" d="M428.402 601.6s460.803-192 844.803-115.2c0 0-476.996 429.637-476.996 852.038l97.54-26.355s72.253-441.682 801.855-1056.08l-1228.8 76.799-38.401 268.8z"/><path id="_276519232" class="fil0" d="M352.396 1792s284.678-463.531 553.478-655.53l26.477 100.798L352.396 1792z"/><path id="_276519136" d="M1263.53 1130.48c85.407 40.086 151.034 102.996 188.309 172.7 40.035 74.864 48.005 157.876 14.416 231.277-33.617 73.466-101.67 121.736-184.517 140.385-78.26 17.614-170.36 8.516-257.75-31.472-87.38-39.987-154.492-103.774-192.354-174.575-40.035-74.865-48.004-157.875-14.415-231.277l43.5 19.876-2.898-1.326-40.6-18.55.01-.025-.158-.072a48.36 48.36 0 0 1 2.152-4.155c34.267-71.075 101.274-117.845 182.509-136.132 77.103-17.355 167.642-8.78 253.869 29.717a48.158 48.158 0 0 1 7.927 3.63zm103.936 217.7c-27.937-52.241-78.165-99.888-144.28-130.97a49.384 49.384 0 0 1-3.553-1.459l.072-.157c-67.802-31.02-138.11-38.336-196.973-25.086-52.988 11.928-95.98 40.695-117.006 83.596a47.467 47.467 0 0 1-2.942 6.43c-18.72 44.008-12.387 95.367 13.224 143.26 28.422 53.148 79.913 101.542 147.73 132.575 67.812 31.028 138.134 38.349 197.002 25.1 54.284-12.22 98.081-42.108 118.514-86.762 20.464-44.72 14.459-97.444-11.789-146.526z" style="fill:#424242;fill-rule:nonzero"/></g></g><path style="fill:none" d="M0 0h2048v2048H0z"/></svg>
