<svg xmlns="http://www.w3.org/2000/svg" xml:space="preserve" width="2048" height="2048" style="shape-rendering:geometricPrecision;text-rendering:geometricPrecision;image-rendering:optimizeQuality;fill-rule:evenodd;clip-rule:evenodd"><path d="M935.144 1093.37c-126.993-197.948-249.495-452.068-89.328-665.399 211.203-281.303 737.555-217.448 762.655 191.264l.914 29.99c-4.835 188.065-63.406 254.109-144.87 411.379-56.86 114.469-290.872 594.608-80.49 671.494 92.24 33.708 215.564-29.333 278.153-96.843 26.228-28.29 31.912-34.78 32.958-36.126-6.274 30.067-3.3 24.908-17.126 47.953-60.686 101.145-222.269 180.878-336.327 128.198-229.114-105.82-52.597-554.928 16.475-713.288 66.094-151.537 141.085-239.521 138.815-410.926-3.367-254.198-283.695-332.054-467-208.704-214.534 144.365-88.87 419.544 23.118 584.697 24.495 35.835 9.519 71.077-26.316 95.574-35.836 24.494-67.135 6.572-91.631-29.262zm759.993 505.759c.45-.579.043-.207.043-.207l-.043.207z" style="fill:#424242"/><path d="M722.688 823.795c102.174 0 194.685 41.422 261.65 108.387 66.965 66.965 108.387 159.476 108.387 261.651 0 102.175-41.421 194.685-108.387 261.65-66.965 66.965-159.475 108.387-261.65 108.387-102.176 0-194.687-41.422-261.652-108.386-66.964-66.965-108.385-159.476-108.385-261.651 0-102.176 41.421-194.686 108.386-261.651 66.965-66.966 159.475-108.387 261.651-108.387zm166.143 203.894c-42.515-42.515-101.257-68.811-166.143-68.811-64.889 0-123.631 26.296-166.145 68.811-42.515 42.515-68.811 101.256-68.811 166.145 0 64.887 26.296 123.63 68.81 166.145 42.515 42.514 101.257 68.811 166.146 68.811 64.887 0 123.628-26.297 166.143-68.812 42.515-42.514 68.812-101.256 68.812-166.143 0-64.888-26.297-123.63-68.812-166.145z" style="fill:#424242;fill-rule:nonzero"/><path style="fill:none" d="M0 0h2048v2048H0z"/></svg>
