<svg xmlns="http://www.w3.org/2000/svg" xml:space="preserve" width="2048" height="2048" style="shape-rendering:geometricPrecision;text-rendering:geometricPrecision;image-rendering:optimizeQuality;fill-rule:evenodd;clip-rule:evenodd"><defs><style>.fil0{fill:#424242}</style></defs><g id="Layer_x0020_1"><g id="_276513640"><path id="_276513016" class="fil0" d="M1665.38 403.411c-425.032 416.04-425.032 825.139 0 1241.18l35.41 34.657-220.236 112.754-18.351-17.966c-426.15-417.229-426.148-1082.84 0-1500.07l18.35-17.965 220.238 112.754-35.411 34.657z"/><path id="_276513448" class="fil0" d="m347.215 368.753 220.236-112.754 18.35 17.966c426.149 417.23 426.153 1082.84 0 1500.07L567.452 1792l-220.236-112.754 35.41-34.658c425.033-416.04 425.033-825.138 0-1241.18l-35.41-34.657z"/><path id="_276513328" class="fil0" d="M751.763 916.988h544.471v214.022H751.763z"/></g></g><path style="fill:none" d="M0 0h2048v2048H0z"/></svg>
