<svg xmlns="http://www.w3.org/2000/svg" xml:space="preserve" width="2048" height="2048" style="shape-rendering:geometricPrecision;text-rendering:geometricPrecision;image-rendering:optimizeQuality;fill-rule:evenodd;clip-rule:evenodd"><defs><style>.fil1{fill:#424242}</style></defs><g id="Layer_x0020_1"><g id="_465081304"><path id="_459338944" style="fill:#424242;fill-rule:nonzero" d="m1316.09 266.12 439.94-9.356 35.97-.766-.76 35.971-9.36 439.943z"/><path id="_459338776" class="fil1" d="M270.975 1539.65c471.744-293.093 911.033-827.017 1313.51-1210.7l67.283 67.282 67.282 67.282c-195.026 204.58-428.868 418.67-650.17 641.7-214.072 215.741-416.415 439.854-560.528 671.81l-118.689-118.689-118.688-118.689z"/><path id="_465081904" class="fil1" d="M451.857 949.495s137.268 254.71 275.137 371.511l-110.365 110.365S413 1156.238 255.998 1120.485l195.859-170.99z"/><path id="_465081424" class="fil1" d="M1098.51 1596.14s-254.71-137.268-371.511-275.137l-110.365 110.365s275.133 203.629 310.886 360.631l170.99-195.859z"/></g></g><path style="fill:none" d="M0 0h2048v2048H0z"/></svg>
