<svg xmlns="http://www.w3.org/2000/svg" xml:space="preserve" width="2048" height="2048" style="shape-rendering:geometricPrecision;text-rendering:geometricPrecision;image-rendering:optimizeQuality;fill-rule:evenodd;clip-rule:evenodd"><defs><style>.fil0,.fil1{fill:#424242}.fil0{fill-rule:nonzero}</style></defs><g id="Layer_x0020_1"><g id="_274744624"><path id="_465080680" class="fil0" d="M1739.4 1514.89c-81.39 133.197-187.292 269.869-361.694 249.303-54.285-6.403-102.078-30.355-137.928-74.118-33.861-41.334-54.941-99.303-57.142-175.407l-.333-2.331v-396.964h170.5v396.964h-.256c1.253 33.831 8.236 56.578 19.102 69.843 6.105 7.453 14.933 11.615 25.371 12.846 67.19 7.925 232.908-80.204 267.136-136.22l75.244 56.084z"/><path id="_465080800" class="fil0" d="m1464.71 1403.98 279.6 16.8 47.69 2.86-2.86 47.69-16.8 279.59z"/><path id="_465081016" class="fil1" d="M365.11 281.74 255.999 468.378H543.13l34.804-129.892z"/><path id="_465081112" class="fil1" d="M379.456 425.295h170.121v1019.79H379.456z"/><path id="_465081064" class="fil1" d="m549.574 1430.27 64.519 91.17-149.577 122.04-149.577-122.04 64.52-91.17z"/><path id="_465082216" class="fil1" d="m506.515 488.184 196.676-198.12 265.61 63.171-29.192 167.235z"/><path id="_465082288" class="fil1" d="M769.488 425.295h170.121v1019.79H769.488z"/><path id="_465082072" class="fil1" d="m939.607 1430.27 64.523 91.17-149.582 122.04-149.577-122.04 64.52-91.17z"/><path id="_274347200" class="fil1" d="M919.326 488.184 1116 290.064l265.61 63.171v169.404z"/><path id="_274938216" class="fil1" d="M1182.3 425.295h170.121v1019.79H1182.3z"/></g></g><path style="fill:none" d="M0 0h2048v2048H0z"/></svg>
