<svg xmlns="http://www.w3.org/2000/svg" xml:space="preserve" width="2048" height="2048" style="shape-rendering:geometricPrecision;text-rendering:geometricPrecision;image-rendering:optimizeQuality;fill-rule:evenodd;clip-rule:evenodd"><defs><style>.fil0{fill:#424242}</style></defs><g id="Layer_x0020_1"><g id="_274744672"><path id="_274744288" class="fil0" d="M272.915 532.607c26.574-39.601 67.885-82.756 107.146-109.047 102.015-68.313 190.456-31.79 249.754 71.694l.38.6c59.096 93.226 131.33 196.73 214.197 270.444 49.192 43.759 111.331 84.637 179.608 84.637 68.278 0 130.416-40.878 179.608-84.637 82.868-73.714 155.101-177.219 214.197-270.444l.378-.598c34.943-61 88.054-113.71 163.831-105.556 31.08 3.344 60.174 16.616 85.926 33.86 39.682 26.574 80.141 69.159 107.112 108.998l16.95 25.035-112.375 76.163-16.95-25.126c-13.191-19.486-33.302-41.601-51.68-55.933-10.646-8.3-26.991-18.832-41.052-18.645-16.543.221-28.276 17.989-35.195 30.84l-1.032 1.918c-62.196 115.514-143.34 233.56-246.408 316.444-75.353 60.597-165.008 103.711-263.31 103.711-98.3 0-187.955-43.115-263.308-103.71C657.624 800.37 576.48 682.324 514.284 566.81l-1.032-1.918c-6.92-12.851-18.652-30.619-35.195-30.84-31.747-.424-76.55 50.654-92.732 74.578l-16.95 25.126L256 557.593l16.916-24.986z"/><path id="_274744384" class="fil0" d="M1024 850.923c107.532 0 209.765 42.36 285.789 118.383 76.024 76.024 118.383 178.257 118.383 285.789 0 107.532-42.36 209.765-118.383 285.789-76.024 76.024-178.258 118.382-285.789 118.382-107.531 0-209.765-42.358-285.789-118.382s-118.383-178.257-118.383-285.789c0-107.532 42.36-209.765 118.383-285.789C814.235 893.282 916.468 850.923 1024 850.923zm189.607 214.565c-50.47-50.47-118.22-78.535-189.607-78.535s-139.138 28.064-189.607 78.535c-50.47 50.47-78.535 118.221-78.535 189.607 0 71.387 28.064 139.138 78.535 189.607 50.47 50.47 118.22 78.535 189.607 78.535s139.138-28.064 189.607-78.535c50.47-50.47 78.535-118.22 78.535-189.607 0-71.386-28.064-139.138-78.535-189.607z"/></g></g><path style="fill:none" d="M0 0h2048v2048H0z"/></svg>
