<svg xmlns="http://www.w3.org/2000/svg" xml:space="preserve" width="2048" height="2048" style="shape-rendering:geometricPrecision;text-rendering:geometricPrecision;image-rendering:optimizeQuality;fill-rule:evenodd;clip-rule:evenodd"><defs><style>.fil0{fill:#424242}</style></defs><g id="Layer_x0020_1"><g id="_274939536"><path id="_274914296" class="fil0" d="m355.83 267.707-99.831 170.766h262.713l31.844-118.845z"/><path id="_274914272" class="fil0" d="M368.956 399.053H524.61v933.067H368.956z"/><path id="_274346960" class="fil0" d="m524.607 1318.57 59.033 83.41-136.857 111.66-136.857-111.66 59.033-83.41z"/><path id="_274347080" class="fil0" d="m485.21 456.593 179.951-181.271 243.022 57.799-26.71 153.013z"/><path id="_274347008" class="fil0" d="M725.82 399.053h155.654v933.067H725.82z"/><path id="_274346648" class="fil0" d="m881.47 1318.57 59.033 83.41-136.857 111.66-136.857-111.66 59.033-83.41z"/><path id="_274346216" class="fil0" d="m862.915 456.593 179.955-181.271 243.02 57.799v154.998z"/><path id="_274346792" class="fil0" d="M1103.52 399.053h155.654v933.067H1103.52z"/><path id="_274346672" class="fil0" d="m1259.18 1318.57 59.03 83.41-144.74 52.55-226.18 76.19 156.24-212.15z"/><path id="_274938624" class="fil0" d="M1164.16 1412.17v374.38l148.38-85.66-23.58-314.99z"/><path id="_274938504" class="fil0" d="m1397.92 261.45-179.96 270.607 26.27 107.715 183.91-265.354z"/><path id="_274939560" class="fil0" d="m1259.18 1318.57 341.91 35.805 18.389-969.438-212.142-12.491-9.414-110.992h352.037s-42.03 757.942 42.042 1062.7l-131.356 176.028-387.317-81.907-14.15-99.702z"/></g></g><path style="fill:none" d="M0 0h2048v2048H0z"/></svg>
